<svg xmlns="http://www.w3.org/2000/svg" viewBox="0 0 1440 900">
  <defs>
    <linearGradient id="bg" x1="0" x2="1" y1="0" y2="1">
      <stop offset="0%" stop-color="#0b1038" />
      <stop offset="45%" stop-color="#0b1c57" />
      <stop offset="100%" stop-color="#0b2a6f" />
    </linearGradient>
    <radialGradient id="glow" cx="30%" cy="20%" r="50%">
      <stop offset="0%" stop-color="#4f7dff" stop-opacity="0.45" />
      <stop offset="100%" stop-color="#0b1038" stop-opacity="0" />
    </radialGradient>
  </defs>
  <rect width="1440" height="900" fill="url(#bg)" />
  <rect width="1440" height="900" fill="url(#glow)" />
  <circle cx="280" cy="180" r="70" fill="#1a2b85" opacity="0.9" />
  <circle cx="310" cy="170" r="46" fill="#0b1038" />
  <circle cx="980" cy="130" r="55" fill="#163a9c" opacity="0.85" />
  <circle cx="1120" cy="190" r="35" fill="#1e45b8" opacity="0.8" />

  <g fill="#182a82" opacity="0.9">
    <circle cx="210" cy="320" r="55" />
    <circle cx="260" cy="300" r="75" />
    <circle cx="330" cy="320" r="55" />
    <rect x="210" y="320" width="170" height="70" rx="35" />
  </g>
  <g fill="#10246f" opacity="0.9">
    <circle cx="1000" cy="320" r="55" />
    <circle cx="1050" cy="300" r="75" />
    <circle cx="1120" cy="320" r="55" />
    <rect x="1000" y="320" width="170" height="70" rx="35" />
  </g>

  <g fill="#b8d9ff" opacity="0.9">
    <circle cx="520" cy="200" r="3" />
    <circle cx="600" cy="240" r="2.5" />
    <circle cx="420" cy="260" r="2.5" />
    <circle cx="720" cy="190" r="2.8" />
    <circle cx="860" cy="240" r="2.4" />
    <circle cx="1200" cy="260" r="3" />
    <circle cx="1300" cy="210" r="2.2" />
    <circle cx="260" cy="220" r="2.4" />
    <circle cx="160" cy="240" r="2.2" />
  </g>

  <path
    d="M0 730 C 220 650 420 640 660 720 C 900 800 1180 820 1440 760 L 1440 900 L 0 900 Z"
    fill="#0b2c7a"
  />
  <path
    d="M0 780 C 260 700 520 720 760 800 C 1000 880 1240 900 1440 860 L 1440 900 L 0 900 Z"
    fill="#0a1e5c"
  />
</svg>
